<svg width="48" height="48" viewBox="0 0 48 48" fill="none" xmlns="http://www.w3.org/2000/svg">
<mask id="mask0_2_7938" style="mask-type:alpha" maskUnits="userSpaceOnUse" x="0" y="0" width="48" height="48">
<rect width="48" height="48" fill="#D9D9D9"/>
</mask>
<g mask="url(#mask0_2_7938)">
<path d="M22.946 36.6885H25.2155V26.5805L29.5655 30.95L31.1655 29.35L24 22.327L16.9155 29.4305L18.496 31.0115L22.946 26.5805V36.6885ZM11.8845 43C11.1002 43 10.4233 42.7153 9.854 42.146C9.28467 41.5767 9 40.8998 9 40.1155V7.8845C9 7.10017 9.28467 6.42333 9.854 5.854C10.4233 5.28467 11.1002 5 11.8845 5H29.2615L39 14.7385V40.1155C39 40.8998 38.7153 41.5767 38.146 42.146C37.5767 42.7153 36.8998 43 36.1155 43H11.8845ZM28.127 15.7615V7.2695H11.8845C11.7308 7.2695 11.5898 7.3335 11.4615 7.4615C11.3335 7.58983 11.2695 7.73083 11.2695 7.8845V40.1155C11.2695 40.2692 11.3335 40.4102 11.4615 40.5385C11.5898 40.6665 11.7308 40.7305 11.8845 40.7305H36.1155C36.2692 40.7305 36.4102 40.6665 36.5385 40.5385C36.6665 40.4102 36.7305 40.2692 36.7305 40.1155V15.7615H28.127Z" fill="#98A1BB"/>
</g>
</svg>
